<svg width="36" height="36" viewBox="0 0 36 36" fill="none" xmlns="http://www.w3.org/2000/svg">
<circle cx="18" cy="18" r="18" fill="#CFD8DD"/>
<path fill-rule="evenodd" clip-rule="evenodd" d="M14.4 14.432C14.3998 13.4686 14.7791 12.5446 15.4542 11.8634C16.1294 11.1822 17.0452 10.7996 18 10.7998C18.9549 10.7996 19.8706 11.1822 20.5458 11.8634C21.221 12.5446 21.6002 13.4686 21.6 14.432C21.6002 15.3954 21.221 16.3193 20.5458 17.0006C19.8706 17.6818 18.9549 18.0644 18 18.0642C17.0452 18.0644 16.1294 17.6818 15.4542 17.0006C14.7791 16.3193 14.3998 15.3954 14.4 14.432ZM10.8 25.1996V23.3832C10.8 21.3764 14.0221 19.751 18 19.751C21.978 19.751 25.2 21.3764 25.2 23.3832V25.1996H10.8Z" fill="#607D8B"/>
</svg>
